<svg xmlns="http://www.w3.org/2000/svg" width="20" height="20" viewBox="0 0 20 20">
  <path fill="#326CE5" fill-rule="evenodd" d="M10,20 C15.5228475,20 20,15.5228475 20,10 C20,4.4771525 15.5228475,0 10,0 C4.4771525,0 0,4.4771525 0,10 C0,15.5228475 4.4771525,20 10,20 Z M13.6665473,6.2787726 C13.9268131,5.95653881 14.3990223,5.90630379 14.721256,6.16656954 C15.0141958,6.40317477 15.0823433,6.81493985 14.8967712,7.12994983 L14.8334591,7.22127826 L9.5834591,13.7212783 C9.32038418,14.0469901 8.84868875,14.089648 8.53250946,13.8366908 L8.45040809,13.7603638 L5.20040809,10.2603638 C4.91855602,9.95683075 4.93613189,9.48228238 5.23966489,9.20043031 C5.51560398,8.94420115 5.93287809,8.9354331 6.21822525,9.16400534 L6.29959833,9.2396871 L8.96000321,12.1050254 L13.6665473,6.2787726 Z"/>
</svg>
