<?xml version="1.0" standalone="no"?>
<!DOCTYPE svg PUBLIC "-//W3C//DTD SVG 20010904//EN"
 "http://www.w3.org/TR/2001/REC-SVG-20010904/DTD/svg10.dtd">
<svg version="1.0" xmlns="http://www.w3.org/2000/svg"
 width="280.000000pt" height="280.000000pt" viewBox="0 0 280.000000 280.000000"
 preserveAspectRatio="xMidYMid meet">
<metadata>
Created by potrace 1.11, written by Peter Selinger 2001-2013
</metadata>
<g transform="translate(0.000000,280.000000) scale(0.100000,-0.100000)"
fill="#000000" stroke="none">
<path d="M1361 1861 c-26 -26 -37 -121 -22 -186 6 -27 12 -61 13 -75 2 -14 7
-28 13 -32 6 -5 5 -8 -4 -8 -7 0 -11 -6 -8 -14 3 -8 -1 -20 -8 -26 -11 -9 -12
-17 -4 -32 6 -11 9 -21 7 -23 -2 -2 -25 -6 -53 -9 -87 -10 -120 -18 -123 -26
-2 -5 -10 -6 -18 -3 -8 3 -14 1 -14 -3 0 -5 -12 -10 -28 -10 -37 -2 -148 -55
-226 -108 -45 -31 -62 -39 -59 -27 5 21 -21 45 -42 37 -8 -3 -14 0 -12 7 1 7
-3 11 -8 10 -6 -1 -32 28 -58 63 -85 114 -188 178 -225 140 -15 -15 -15 -20 7
-62 28 -52 87 -107 146 -135 49 -23 95 -63 95 -82 0 -19 26 -40 40 -32 20 13
9 -12 -16 -36 -31 -28 -108 -143 -120 -179 -4 -14 -7 -31 -5 -39 1 -8 -2 -10
-11 -5 -10 6 -9 3 1 -10 11 -14 12 -16 1 -14 -20 5 -46 -91 -50 -187 -1 -18
-1 -19 -11 -2 -11 18 -54 23 -64 7 -3 -5 -12 -7 -20 -3 -10 3 -15 -1 -15 -13
0 -16 -2 -17 -10 -4 -5 8 -15 15 -22 16 -7 0 -45 6 -83 13 -155 27 -284 -15
-221 -72 19 -17 38 -24 83 -30 12 -2 25 -6 28 -9 4 -3 19 -3 33 1 15 3 39 6
54 5 16 0 28 2 28 5 0 4 8 7 18 8 9 0 27 3 40 6 13 4 22 1 22 -6 1 -7 7 -1 14
12 l14 24 7 -23 c6 -18 9 -20 16 -9 8 12 12 11 23 -4 16 -20 35 -19 53 3 11
13 12 12 13 -5 1 -21 29 -78 30 -59 0 12 30 15 30 3 0 -10 34 -6 43 6 6 6 10
6 14 -2 3 -9 10 -10 21 -4 9 5 25 7 35 6 15 -3 17 2 13 27 -4 25 -2 28 12 23
26 -11 79 -16 172 -17 78 0 115 4 178 18 15 3 25 -1 28 -11 6 -14 10 -13 33 7
14 13 23 19 19 14 -4 -5 -1 -21 7 -37 11 -20 20 -26 32 -22 11 5 14 3 8 -6 -6
-10 -3 -11 12 -2 11 6 24 7 28 3 5 -4 -2 10 -14 31 -13 21 -21 46 -18 57 3 10
0 21 -7 24 -7 3 -7 5 2 5 7 1 10 6 7 11 -3 6 -2 10 4 10 6 0 7 7 4 17 -4 11
-3 14 5 9 7 -4 12 -1 12 9 0 9 5 13 10 10 6 -3 10 -1 10 5 0 6 12 15 28 21
130 50 245 -42 197 -158 -9 -21 -15 -40 -13 -43 2 -3 18 -6 36 -8 23 -2 32 0
27 7 -3 6 -1 11 4 11 6 0 10 3 10 8 -6 34 10 41 35 16 10 -10 16 -11 16 -4 0
7 7 10 14 7 10 -4 13 -1 9 9 -4 10 0 12 11 8 9 -3 16 -9 16 -13 0 -4 12 -8 28
-9 15 0 39 -3 55 -5 15 -2 30 0 33 5 3 4 11 5 17 1 17 -11 147 -10 147 1 0 4
9 6 21 3 12 -3 22 0 26 9 9 25 20 15 15 -16 -3 -19 0 -30 7 -30 7 0 10 -4 7
-9 -3 -4 12 -5 33 -1 22 4 46 3 55 -2 10 -5 16 -5 16 0 0 6 15 8 33 5 l34 -4
-3 47 c-1 34 1 43 7 31 18 -32 45 -38 70 -16 13 11 29 17 38 13 9 -3 32 -8 51
-11 19 -3 40 -8 45 -12 6 -4 27 -7 48 -6 20 0 37 -3 37 -8 0 -6 5 -6 12 -1 7
5 32 9 55 9 24 0 43 4 43 8 0 5 5 5 10 2 6 -3 10 0 10 7 0 10 2 10 9 -1 6 -9
11 -10 15 -2 4 6 4 11 -1 11 -4 0 -2 4 6 9 20 13 5 46 -27 61 -34 16 -172 22
-215 9 -18 -5 -47 -10 -64 -11 -20 -1 -33 -6 -33 -15 0 -7 -6 -13 -12 -13 -10
0 -10 -2 0 -9 11 -7 11 -9 -2 -14 -10 -4 -16 -1 -17 8 -1 8 -2 20 -3 27 0 7
-12 18 -26 25 -22 11 -27 10 -41 -8 l-16 -21 2 23 c1 13 -2 44 -7 69 -5 25
-10 50 -12 57 -1 7 -5 16 -9 19 -4 4 -7 14 -7 22 0 14 -20 65 -47 117 -22 41
-115 165 -125 165 -4 0 -8 4 -8 9 0 5 9 7 20 4 12 -3 20 0 20 6 0 7 4 10 9 7
5 -3 12 1 15 10 3 8 2 13 -2 10 -4 -2 -8 5 -9 17 0 12 1 16 4 10 3 -7 12 -13
20 -13 14 0 14 2 0 18 -16 18 -15 18 13 14 22 -3 30 -1 28 9 -2 7 2 13 7 14
20 2 85 37 85 47 0 5 4 7 9 3 5 -3 12 4 16 15 4 11 9 19 13 17 4 -2 15 4 25
15 9 10 14 18 10 18 -4 0 2 7 13 15 10 8 15 15 11 15 -4 0 -3 9 3 19 16 31
-17 63 -55 56 -43 -9 -120 -67 -155 -118 -16 -23 -39 -51 -50 -62 -16 -17 -18
-23 -8 -34 11 -11 9 -11 -9 -2 -19 10 -23 9 -23 -4 0 -12 -6 -15 -19 -10 -34
10 -45 -27 -19 -61 21 -29 21 -29 -13 2 -59 54 -219 147 -219 127 0 -3 -8 1
-18 10 -20 19 -146 54 -216 61 -26 2 -53 9 -59 15 -8 8 -8 11 1 11 9 0 8 8 -3
30 -9 17 -13 30 -9 30 4 0 1 7 -6 15 -7 8 -8 15 -3 15 6 0 9 11 8 25 -2 14 1
25 6 25 4 0 6 7 3 15 -4 8 -2 15 3 15 5 0 9 35 8 78 -1 80 -20 134 -50 146
-23 8 -23 8 -44 -13z m62 -468 c12 -19 -4 -43 -28 -43 -24 0 -38 21 -29 44 6
16 46 16 57 -1z m-86 -149 c-1 -24 -5 -44 -8 -44 -7 0 -3 -144 5 -190 4 -19
12 -37 17 -39 6 -1 3 -9 -7 -15 -13 -10 -14 -17 -5 -34 10 -19 8 -22 -16 -28
-16 -4 -34 -12 -42 -18 -11 -8 -13 -8 -8 1 4 7 2 21 -5 32 -9 15 -16 17 -30
10 -13 -7 -16 -6 -12 5 7 18 -113 141 -188 194 -49 34 -56 41 -43 52 8 7 15 9
15 4 0 -5 6 -1 13 8 8 9 20 18 27 20 8 2 21 9 28 16 8 7 17 10 22 7 4 -3 10 2
13 10 4 8 15 12 27 10 11 -2 20 1 20 7 0 6 3 8 6 5 4 -3 15 -2 25 3 10 6 29
11 43 12 15 1 26 5 26 9 0 4 18 7 39 7 l40 1 -2 -45z m221 34 c6 -1 12 -4 12
-7 0 -3 12 -7 26 -8 15 0 29 -5 33 -10 3 -5 13 -8 21 -8 8 0 38 -13 65 -29 28
-16 55 -29 62 -29 10 0 28 -27 21 -31 -34 -18 -117 -90 -113 -97 4 -5 -3 -9
-14 -9 -11 0 -40 -24 -70 -57 -40 -46 -47 -60 -38 -72 10 -11 8 -13 -11 -7
-14 5 -29 3 -38 -5 -13 -10 -12 -14 2 -31 15 -16 12 -16 -33 4 -42 20 -47 25
-34 35 14 10 14 13 -1 30 -14 15 -15 22 -6 31 21 21 29 166 13 250 l-12 63 51
-6 c28 -3 57 -7 64 -7z m-664 -64 c25 -10 19 -43 -8 -50 -14 -3 -29 -3 -35 0
-13 8 -8 36 10 47 17 11 14 10 33 3z m1050 -19 c3 -9 -5 -21 -21 -32 -24 -16
-26 -16 -39 1 -10 14 -10 21 -1 32 16 18 53 18 61 -1z m-81 -84 c-2 -3 -16 8
-31 24 l-27 28 31 -24 c17 -13 30 -26 27 -28z m94 -114 c52 -83 97 -247 71
-263 -5 -3 -8 -2 -7 3 6 32 -12 38 -143 48 -43 3 -62 0 -73 -11 -8 -9 -15 -11
-15 -5 0 12 -41 14 -89 5 -25 -5 -31 -12 -32 -33 -1 -24 -1 -24 -10 7 -10 35
-29 41 -53 16 -13 -13 -16 -13 -16 -1 0 8 -12 32 -26 53 -25 37 -25 38 -3 17
21 -18 27 -20 42 -8 15 11 16 17 6 39 -7 14 -16 26 -21 26 -4 0 -8 6 -8 12 0
7 11 1 25 -14 24 -26 55 -29 55 -6 0 5 5 6 11 3 6 -4 13 2 16 14 3 11 9 18 14
15 5 -2 18 7 31 21 12 14 26 25 31 25 14 0 67 61 67 76 0 8 6 11 15 7 9 -3 15
-2 14 3 0 5 2 19 6 32 l8 23 29 -32 c16 -18 41 -50 55 -72z m-1037 83 c0 -19
166 -175 208 -195 22 -11 43 -28 46 -38 2 -10 14 -21 25 -24 19 -5 19 -6 3
-39 -13 -27 -18 -31 -24 -19 -13 21 -33 19 -52 -7 -8 -13 -13 -16 -10 -7 4 14
-6 18 -53 25 -83 11 -97 11 -110 2 -6 -5 -14 -5 -17 1 -6 10 -84 6 -145 -8
-29 -6 -38 -5 -38 5 0 8 4 14 7 14 4 0 8 12 9 28 1 48 4 62 13 62 5 0 6 5 3
10 -3 6 -1 10 4 10 6 0 10 3 9 8 -1 4 2 17 6 30 5 15 3 29 -6 39 -12 15 -11
15 10 4 18 -10 22 -9 22 4 0 8 5 15 11 15 5 0 7 5 4 10 -3 6 -1 10 4 10 6 0
11 6 11 14 0 8 9 17 20 21 11 3 19 9 19 13 -2 15 1 22 11 22 6 0 10 -5 10 -10z
m-230 -351 c0 -19 -37 -41 -52 -32 -16 9 -8 52 10 55 27 6 42 -2 42 -23z
m1459 3 c13 -24 -4 -42 -36 -42 -25 0 -26 3 -17 38 8 27 39 29 53 4z"/>
</g>
</svg>
