<?xml version="1.0" encoding="UTF-8"?>
<svg width="235px" height="235px" viewBox="0 0 235 235" version="1.1" xmlns="http://www.w3.org/2000/svg" xmlns:xlink="http://www.w3.org/1999/xlink">
    <!-- Generator: Sketch 52.5 (67469) - http://www.bohemiancoding.com/sketch -->
    <title>marketplace_ns</title>
    <desc>Created with Sketch.</desc>
    <defs>
        <filter x="-1.7%" y="-1.7%" width="103.5%" height="103.5%" filterUnits="objectBoundingBox" id="filter-1">
            <feOffset dx="0" dy="0" in="SourceAlpha" result="shadowOffsetOuter1"></feOffset>
            <feGaussianBlur stdDeviation="1" in="shadowOffsetOuter1" result="shadowBlurOuter1"></feGaussianBlur>
            <feColorMatrix values="0 0 0 0 0   0 0 0 0 0   0 0 0 0 0  0 0 0 0.5 0" type="matrix" in="shadowBlurOuter1" result="shadowMatrixOuter1"></feColorMatrix>
            <feMerge>
                <feMergeNode in="shadowMatrixOuter1"></feMergeNode>
                <feMergeNode in="SourceGraphic"></feMergeNode>
            </feMerge>
        </filter>
    </defs>
    <g id="Page-1" stroke="none" stroke-width="1" fill="none" fill-rule="evenodd">
        <g id="marketplace_ns" filter="url(#filter-1)" transform="translate(2.000000, 2.000000)">
            <circle id="path4514" fill="#326CE5" cx="115.499998" cy="115.499998" r="115.499998"></circle>
            <path d="M112.13125,120.3125 L79.8875,120.3125 C72.66875,120.3125 66.89375,126.0875 66.89375,133.30625 L66.89375,142.45 C66.89375,149.66875 72.66875,155.44375 79.8875,155.44375 L112.13125,155.44375 C119.35,155.44375 125.125,149.66875 125.125,142.45 L125.125,133.30625 C125.125,126.0875 119.35,120.3125 112.13125,120.3125 Z M117.90625,142.45 C117.90625,145.81875 115.5,148.225 112.13125,148.225 L79.8875,148.225 C76.51875,148.225 74.1125,145.81875 74.1125,142.45 L74.1125,133.30625 C74.1125,129.9375 76.51875,127.53125 79.8875,127.53125 L112.13125,127.53125 C115.5,127.53125 117.90625,129.9375 117.90625,133.30625 L117.90625,142.45 Z M184.31875,96.25 L177.58125,60.6375 C177.1,58.7125 175.65625,57.75 174.2125,57.75 L53.9,57.75 C51.975,57.75 50.53125,59.19375 50.53125,60.6375 L44.75625,89.99375 C43.79375,92.4 43.3125,94.80625 43.3125,97.2125 C43.3125,104.43125 47.1625,111.16875 53.41875,114.5375 L53.41875,164.10625 C53.41875,169.88125 58.23125,174.69375 64.00625,174.69375 L131.38125,174.69375 C133.30625,174.69375 135.23125,173.25 135.23125,170.84375 C135.23125,170.84375 135.23125,170.84375 135.23125,170.3625 C135.23125,170.3625 135.23125,170.3625 135.23125,169.88125 L135.23125,126.56875 L154.48125,126.56875 L154.48125,169.88125 C154.48125,169.88125 154.48125,169.88125 154.48125,170.3625 C154.48125,170.3625 154.48125,170.3625 154.48125,170.84375 C154.48125,172.76875 155.925,174.69375 158.33125,174.69375 L165.06875,174.69375 C170.84375,174.69375 175.65625,169.88125 175.65625,164.10625 L175.65625,113.575 C180.95,110.20625 184.31875,104.43125 184.8,98.175 C184.8,97.69375 184.8,96.73125 184.31875,96.25 Z M167.95625,163.625 C167.95625,165.55 166.5125,166.99375 164.5875,166.99375 L161.21875,166.99375 L161.21875,123.2 C161.21875,121.275 159.775,119.35 157.36875,119.35 L130.9,119.35 C128.975,119.35 127.05,120.79375 127.05,123.2 L127.05,166.99375 L64.00625,166.99375 C62.08125,166.99375 60.6375,165.55 60.6375,163.625 L60.6375,116.94375 C61.6,116.94375 62.5625,117.425 63.525,117.425 C70.2625,117.425 76.51875,114.05625 80.36875,108.7625 C84.21875,114.05625 89.99375,117.425 97.2125,117.425 C104.43125,117.425 110.20625,114.05625 114.05625,108.7625 C117.90625,114.05625 123.68125,117.425 130.9,117.425 C138.11875,117.425 143.89375,114.05625 147.74375,108.7625 C151.59375,114.05625 157.36875,117.425 164.5875,117.425 C166.03125,117.425 167.475,117.425 168.4375,116.94375 L168.4375,163.625 L167.95625,163.625 Z M177.1,96.73125 C177.1,103.95 171.325,109.725 164.10625,109.725 C156.8875,109.725 151.1125,103.95 151.1125,96.73125 C151.1125,94.80625 149.66875,92.88125 147.2625,92.88125 C144.85625,92.88125 143.4125,94.325 143.4125,96.73125 C143.4125,103.95 137.6375,109.725 130.41875,109.725 C123.2,109.725 117.425,103.95 117.425,96.73125 C117.425,94.80625 115.98125,92.88125 113.575,92.88125 C111.16875,92.88125 109.725,94.325 109.725,96.73125 C109.725,103.95 103.95,109.725 96.73125,109.725 C89.5125,109.725 83.7375,103.95 83.7375,96.73125 C83.7375,94.80625 82.29375,92.88125 79.8875,92.88125 C77.48125,92.88125 77,94.80625 77,96.73125 C77,103.95 71.225,109.725 64.00625,109.725 C56.7875,109.725 51.0125,103.95 51.0125,96.73125 C51.0125,95.2875 51.49375,93.3625 51.975,91.91875 C51.975,91.91875 51.975,91.4375 51.975,91.4375 L57.26875,64.96875 L171.80625,64.96875 L177.58125,96.25 C177.1,96.73125 177.1,96.73125 177.1,96.73125 Z" id="Shape" fill="#FFFFFF" fill-rule="nonzero"></path>
        </g>
    </g>
</svg>