<?xml version="1.0" encoding="UTF-8"?>
<svg width="235px" height="235px" viewBox="0 0 235 235" version="1.1" xmlns="http://www.w3.org/2000/svg" xmlns:xlink="http://www.w3.org/1999/xlink">
    <!-- Generator: Sketch 52.5 (67469) - http://www.bohemiancoding.com/sketch -->
    <title>optimize your cloud spend_ns</title>
    <desc>Created with Sketch.</desc>
    <defs>
        <circle id="path-1" cx="115.5" cy="115.5" r="115.5"></circle>
        <filter x="-1.3%" y="-1.3%" width="102.6%" height="102.6%" filterUnits="objectBoundingBox" id="filter-2">
            <feOffset dx="0" dy="0" in="SourceAlpha" result="shadowOffsetOuter1"></feOffset>
            <feGaussianBlur stdDeviation="1" in="shadowOffsetOuter1" result="shadowBlurOuter1"></feGaussianBlur>
            <feColorMatrix values="0 0 0 0 0   0 0 0 0 0   0 0 0 0 0  0 0 0 0.5 0" type="matrix" in="shadowBlurOuter1"></feColorMatrix>
        </filter>
    </defs>
    <g id="Page-1" stroke="none" stroke-width="1" fill="none" fill-rule="evenodd">
        <g id="optimize-your-cloud-spend_ns" transform="translate(2.000000, 2.000000)" fill-rule="nonzero">
            <g id="Oval">
                <use fill="black" fill-opacity="1" filter="url(#filter-2)" xlink:href="#path-1"></use>
                <use fill="#F5F8FE" xlink:href="#path-1"></use>
            </g>
            <g id="Group-2" transform="translate(17.000000, 52.000000)">
                <path d="M25.7370248,80.9274399 L1.57832453,53.7223913 C-0.47721211,51.4076559 -0.434281123,47.90907 1.67743606,45.6454708 C30.0659491,15.2151569 61.6723853,1.81982717e-15 96.4967448,0 C131.301083,0 163.611626,15.1976672 193.428371,45.5930016 L193.42837,45.5930027 C195.656155,47.8640175 195.724178,51.4790333 193.583405,53.8322494 L168.612722,81.2809378 C166.40851,83.7038881 162.668417,83.9112765 160.209837,81.7468784 C135.935978,60.3775165 114.698281,49.6928356 96.4967448,49.6928356 C78.3496176,49.6928356 57.6005321,60.2592581 34.2494883,81.3921032 L34.2494877,81.3921026 C31.7925536,83.6156438 27.9982786,83.4264415 25.7747374,80.9695073 C25.7621006,80.9555441 25.7495296,80.9415215 25.7370248,80.9274399 Z" id="Line" fill="#326CE5"></path>
                <path d="M104.363774,127.219073 C94.9401872,127.219073 87.2992574,119.586782 87.2992574,110.169893 C87.2992574,107.949318 87.3272314,107.044064 87.4871903,105.804964 C87.8290199,103.157029 88.7474765,100.714768 90.605383,97.6217584 C92.4875622,94.4883398 110.864142,64.6212701 145.81938,7.88322725 L159.88897,-14.9540084 L152.150437,10.7288226 C132.957812,74.425773 122.872524,108.267732 122.280246,110.929969 C120.265459,119.986261 113.125184,127.219073 104.363774,127.219073 Z" id="Oval" stroke="#F5F8FE" stroke-width="7" fill="#194AA3" stroke-linecap="round" stroke-linejoin="round" transform="translate(119.799257, 66.719073) rotate(6.000000) translate(-119.799257, -66.719073) "></path>
                <path d="M106.363774,125.719073 C113.855249,125.719073 119.338455,119.026068 120.863774,112.169893 C121.487429,109.366614 131.465924,75.8830079 150.799257,11.7190735 C115.874526,68.4075981 97.4766767,98.3092374 95.605709,101.423992 C92.7992574,106.096123 92.7992574,108.391718 92.7992574,112.169893 C92.7992574,119.652899 98.8722981,125.719073 106.363774,125.719073 Z" id="Oval-Copy" fill="#8AABEF" transform="translate(121.799257, 68.719073) rotate(6.000000) translate(-121.799257, -68.719073) "></path>
                <path d="M104.363774,127.219073 C94.9401872,127.219073 87.2992574,119.586782 87.2992574,110.169893 C87.2992574,107.949318 87.3272314,107.044064 87.4871903,105.804964 C87.8290199,103.157029 88.7474765,100.714768 90.605383,97.6217584 C92.4875622,94.4883398 110.864142,64.6212701 145.81938,7.88322725 L159.88897,-14.9540084 L152.150437,10.7288226 C132.957812,74.425773 122.872524,108.267732 122.280246,110.929969 C120.265459,119.986261 113.125184,127.219073 104.363774,127.219073 Z" id="Oval-Copy-2" stroke="#F5F8FE" stroke-width="7" fill="#194AA3" stroke-linecap="round" stroke-linejoin="round" transform="translate(119.799257, 66.719073) rotate(6.000000) translate(-119.799257, -66.719073) "></path>
            </g>
        </g>
    </g>
</svg>