<?xml version="1.0" encoding="UTF-8"?>
<svg width="235px" height="235px" viewBox="0 0 235 235" version="1.1" xmlns="http://www.w3.org/2000/svg" xmlns:xlink="http://www.w3.org/1999/xlink">
    <!-- Generator: Sketch 52.5 (67469) - http://www.bohemiancoding.com/sketch -->
    <title>plan budgets better_ns</title>
    <desc>Created with Sketch.</desc>
    <defs>
        <circle id="path-1" cx="115.5" cy="115.5" r="115.5"></circle>
        <filter x="-1.3%" y="-1.3%" width="102.6%" height="102.6%" filterUnits="objectBoundingBox" id="filter-2">
            <feOffset dx="0" dy="0" in="SourceAlpha" result="shadowOffsetOuter1"></feOffset>
            <feGaussianBlur stdDeviation="1" in="shadowOffsetOuter1" result="shadowBlurOuter1"></feGaussianBlur>
            <feColorMatrix values="0 0 0 0 0   0 0 0 0 0   0 0 0 0 0  0 0 0 0.5 0" type="matrix" in="shadowBlurOuter1"></feColorMatrix>
        </filter>
    </defs>
    <g id="Page-1" stroke="none" stroke-width="1" fill="none" fill-rule="evenodd">
        <g id="plan-budgets-better_ns" transform="translate(2.000000, 2.000000)">
            <g id="Oval" fill-rule="nonzero">
                <use fill="black" fill-opacity="1" filter="url(#filter-2)" xlink:href="#path-1"></use>
                <use fill="#F5F8FE" xlink:href="#path-1"></use>
            </g>
            <g id="Group-8" transform="translate(22.000000, 54.000000)">
                <g id="Group-7-Copy" transform="translate(0.000000, 16.000000)">
                    <g id="Group-6-Copy">
                        <rect id="Rectangle" stroke="#326CE5" stroke-width="4" fill="#FFFFFF" fill-rule="nonzero" x="2" y="2" width="147" height="73" rx="2"></rect>
                        <g id="Group-5" transform="translate(30.838028, 13.712329)">
                            <ellipse id="Oval" fill="#326CE5" fill-rule="nonzero" cx="6.91197183" cy="25.8424658" rx="6.91197183" ry="6.85616438"></ellipse>
                            <ellipse id="Oval-Copy-3" fill="#326CE5" fill-rule="nonzero" cx="81.3485915" cy="25.8424658" rx="6.91197183" ry="6.85616438"></ellipse>
                            <g id="Group-4" transform="translate(26.584507, 0.000000)">
                                <ellipse id="Oval" fill="#326CE5" fill-rule="nonzero" cx="17.5457746" cy="25.3150685" rx="17.5457746" ry="25.3150685"></ellipse>
                                <path d="M20.9207714,30.4561125 C20.9207714,29.665732 20.6972506,29.0368106 20.2502024,28.5693294 C19.8031545,28.1018483 19.0441664,27.6705191 17.9732159,27.2753288 C16.9022654,26.8801385 15.9787072,26.4873638 15.2025139,26.096993 C14.4263204,25.7066221 13.7606708,25.2584253 13.205545,24.7523889 C12.6504193,24.2463526 12.2181154,23.6511665 11.9086207,22.9668126 C11.5991256,22.2824587 11.4443805,21.4679935 11.4443805,20.5233924 C11.4443805,18.8944374 11.9749352,17.5594854 13.0360605,16.5184965 C14.0971859,15.4775075 15.5070858,14.870273 17.2658026,14.6967748 L17.2658026,11.6027397 L19.623847,11.6027397 L19.623847,14.7401492 C21.3629135,14.9811188 22.7236879,15.6919687 23.7062115,16.8727201 C24.6887347,18.0534715 25.179989,19.5836059 25.179989,21.4631694 L20.9207714,21.4631694 C20.9207714,20.306515 20.6776005,19.4414468 20.1912513,18.867939 C19.7049024,18.2944312 19.0539904,18.0076816 18.2384961,18.0076816 C17.4328266,18.0076816 16.8089336,18.23178 16.3667984,18.6799836 C15.9246628,19.1281872 15.7035981,19.74747 15.7035981,20.5378505 C15.7035981,21.2703983 15.9197502,21.8583555 16.3520606,22.3017396 C16.7843707,22.7451238 17.5875715,23.19814 18.761687,23.6608018 C19.9358026,24.1234636 20.9011173,24.5596121 21.6576602,24.9692606 C22.4142034,25.378909 23.0528339,25.8415638 23.5735712,26.3572389 C24.0943089,26.872914 24.4922246,27.4608712 24.7673312,28.1211281 C25.0424378,28.781385 25.179989,29.5500667 25.179989,30.4271963 C25.179989,32.0657901 24.6592595,33.3959227 23.6177845,34.4176341 C22.5763098,35.4393455 21.1418473,36.0417607 19.3143536,36.2248977 L19.3143536,39.1020612 L16.9710472,39.1020612 L16.9710472,36.2393558 C14.9568741,36.0273024 13.3971417,35.3260912 12.2918027,34.135701 C11.186464,32.9453108 10.6338028,31.3621639 10.6338028,29.3862126 L14.8930205,29.3862126 C14.8930205,30.5332282 15.1705791,31.4127543 15.7257049,32.0248173 C16.2808307,32.6368802 17.0791189,32.9429071 18.1205936,32.9429071 C18.9852144,32.9429071 19.6680579,32.7188087 20.1691448,32.2706051 C20.6702318,31.8224015 20.9207714,31.2175767 20.9207714,30.4561125 Z" id="$" fill="#FFFFFF"></path>
                            </g>
                        </g>
                    </g>
                    <g id="Group-7" transform="translate(7.000000, 8.000000)">
                        <g id="Group-6-Copy">
                            <rect id="Rectangle" stroke="#326CE5" stroke-width="4" fill="#FFFFFF" fill-rule="nonzero" x="2" y="2" width="146.962525" height="71.9779365" rx="2"></rect>
                            <g id="Group-5" transform="translate(30.830375, 13.530317)">
                                <ellipse id="Oval" fill="#326CE5" fill-rule="nonzero" cx="6.91025641" cy="25.4994444" rx="6.91025641" ry="6.76515873"></ellipse>
                                <ellipse id="Oval-Copy-3" fill="#326CE5" fill-rule="nonzero" cx="81.3284024" cy="25.4994444" rx="6.91025641" ry="6.76515873"></ellipse>
                                <g id="Group-4" transform="translate(26.577909, 0.000000)">
                                    <ellipse id="Oval" fill="#326CE5" fill-rule="nonzero" cx="17.5414201" cy="24.9790476" rx="17.5414201" ry="24.9790476"></ellipse>
                                    <path d="M20.9155793,30.0518518 C20.9155793,29.2719624 20.6921139,28.651389 20.2451767,28.190113 C19.7982398,27.7288369 19.03944,27.303233 17.9687553,26.9132883 C16.8980705,26.5233436 15.9747416,26.1357824 15.198741,25.7505932 C14.42274,25.3654039 13.7572557,24.9231562 13.2022677,24.4238368 C12.6472797,23.9245174 12.2150831,23.3372315 11.9056652,22.6619614 C11.596247,21.9866914 11.4415402,21.183037 11.4415402,20.2509741 C11.4415402,18.6436411 11.9719632,17.3264087 13.0328252,16.2992373 C14.0936872,15.272066 15.5032372,14.6728917 17.2615176,14.5016964 L17.2615176,11.4487302 L19.6189768,11.4487302 L19.6189768,14.544495 C21.3576117,14.7822662 22.7180483,15.4836806 23.700328,16.6487592 C24.6826075,17.8138378 25.1737399,19.3236619 25.1737399,21.1782769 L20.9155793,21.1782769 C20.9155793,20.0369754 20.6724688,19.1833898 20.1862402,18.6174944 C19.7000121,18.0515991 19.0492615,17.7686557 18.2339696,17.7686557 C17.4285001,17.7686557 16.804762,17.9897795 16.3627364,18.4320339 C15.9207106,18.8742882 15.6997008,19.4853509 15.6997008,20.2652402 C15.6997008,20.9880645 15.9157992,21.5682174 16.3480023,22.0057163 C16.7802051,22.4432152 17.5832066,22.8902183 18.7570308,23.3467389 C19.9308549,23.8032595 20.89593,24.2336188 21.6522852,24.6378298 C22.4086406,25.0420407 23.0471126,25.4985545 23.5677207,26.0073847 C24.0883291,26.516215 24.4861461,27.0963679 24.7611844,27.7478609 C25.0362227,28.3993538 25.1737399,29.1578324 25.1737399,30.0233193 C25.1737399,31.6401632 24.6531395,32.9526402 23.611923,33.9607899 C22.5707068,34.9689395 21.1366003,35.5633585 19.3095601,35.7440646 L19.3095601,38.583038 L16.9668353,38.583038 L16.9668353,35.7583308 C14.9531621,35.5490921 13.3938167,34.8571885 12.2887521,33.682599 C11.1836878,32.5080096 10.6311637,30.9458765 10.6311637,28.9961531 L14.8893243,28.9961531 C14.8893243,30.1279438 15.1668141,30.9957955 15.7218021,31.5997342 C16.2767901,32.2036729 17.0748802,32.5056377 18.1160964,32.5056377 C18.9805026,32.5056377 19.6631766,32.2845139 20.1641392,31.8422595 C20.6651019,31.4000052 20.9155793,30.8032086 20.9155793,30.0518518 Z" id="$" fill="#FFFFFF"></path>
                                </g>
                            </g>
                        </g>
                    </g>
                </g>
                <g id="Group-6" transform="translate(64.000000, 0.000000)" fill-rule="nonzero" stroke="#F5F8FE" stroke-width="6">
                    <path d="M89.4064357,64.0004082 L102.437556,16.271081 C100.288506,14.3180541 99,11.5213558 99,8.5 C99,2.70101013 103.70101,-2 109.5,-2 C115.29899,-2 120,2.70101013 120,8.5 C120,13.7286226 116.178261,18.0646301 111.175808,18.866996 L97.7577578,68.0135399 C99.190535,69.8352159 100,72.1040911 100,74.5 C100,80.2989899 95.2989899,85 89.5,85 C86.6785771,85 84.0463991,83.876595 82.1148762,81.9648237 L49.7594047,90.745234 C48.7311894,95.4653939 44.5283705,99 39.5,99 C38.1892082,99 36.9127655,98.7580195 35.7238235,98.2997747 L17.8176831,121.65561 C18.585486,123.130346 19,124.784743 19,126.5 C19,132.29899 14.2989899,137 8.5,137 C2.70101013,137 -2,132.29899 -2,126.5 C-2,120.70101 2.70101013,116 8.5,116 C9.22715249,116 9.94500456,116.074398 10.6445247,116.219771 L29.4814414,91.6498797 C29.1645103,90.6410784 29,89.5811918 29,88.5 C29,82.7010101 33.7010101,78 39.5,78 C42.8244588,78 45.8619483,79.5598098 47.8096744,82.0790827 L79.0376384,73.6046478 C79.4893628,68.2553049 83.9514977,64.0480226 89.4064357,64.0004082 Z" id="Combined-Shape-Copy" fill="#9CB7F3"></path>
                    <path d="M88.4064357,63.0004082 L101.437556,15.271081 C99.288506,13.3180541 98,10.5213558 98,7.5 C98,1.70101013 102.70101,-3 108.5,-3 C114.29899,-3 119,1.70101013 119,7.5 C119,12.7286226 115.178261,17.0646301 110.175808,17.866996 L96.7577578,67.0135399 C98.190535,68.8352159 99,71.1040911 99,73.5 C99,79.2989899 94.2989899,84 88.5,84 C85.6785771,84 83.0463991,82.876595 81.1148762,80.9648237 L48.7594047,89.745234 C47.7311894,94.4653939 43.5283705,98 38.5,98 C37.1892082,98 35.9127655,97.7580195 34.7238235,97.2997747 L16.8176831,120.65561 C17.585486,122.130346 18,123.784743 18,125.5 C18,131.29899 13.2989899,136 7.5,136 C1.70101013,136 -3,131.29899 -3,125.5 C-3,119.70101 1.70101013,115 7.5,115 C8.22715249,115 8.94500456,115.074398 9.64452472,115.219771 L28.4814414,90.6498797 C28.1645103,89.6410784 28,88.5811918 28,87.5 C28,81.7010101 32.7010101,77 38.5,77 C41.8244588,77 44.8619483,78.5598098 46.8096744,81.0790827 L78.0376384,72.6046478 C78.4893628,67.2553049 82.9514977,63.0480226 88.4064357,63.0004082 Z" id="Combined-Shape" fill="#194AA3"></path>
                </g>
            </g>
        </g>
    </g>
</svg>