<svg xmlns:rdf="http://www.w3.org/1999/02/22-rdf-syntax-ns#" xmlns:svg="http://www.w3.org/2000/svg" xmlns="http://www.w3.org/2000/svg" viewBox="0 0 570.66669 102.69333" height="102.69333" width="570.66669" xml:space="preserve" id="svg2" version="1.1">
  <defs id="defs6"></defs>
  <g transform="matrix(1.3333333,0,0,-1.3333333,0,102.69333)" id="g10">
    <g transform="scale(0.1)" id="g12">
      <path class="letter" id="path14" style="fill:#f68b28;fill-opacity:1;fill-rule:nonzero;stroke:none" d="m 1445.94,268.148 c 3.73,-2.679 10.45,-6.164 20.08,-10.449 9.65,-4.281 21.57,-8.715 35.78,-13.261 14.17,-4.563 30.4,-8.438 48.61,-11.641 18.22,-3.223 38.05,-4.824 59.49,-4.824 27.85,0 50.63,3.613 68.3,10.84 17.7,7.246 26.53,19.687 26.53,37.382 0,14.996 -5.63,26.375 -16.88,34.16 -11.25,7.75 -31.34,13.262 -60.27,16.465 l -62.7,7.246 c -21.43,2.125 -41.12,6.016 -59.08,11.641 -17.95,5.625 -33.34,13.262 -46.21,22.91 -12.85,9.649 -22.91,21.571 -30.14,35.781 -7.22,14.176 -10.85,31.2 -10.85,51.036 0,17.136 3.35,33.339 10.05,48.613 6.69,15.273 17.29,28.797 31.74,40.601 14.47,11.778 33.36,21.016 56.66,27.719 23.32,6.703 51.58,10.059 84.81,10.059 55.72,0 98.98,-6.168 129.8,-18.496 30.81,-12.328 46.21,-28.407 46.21,-48.223 0,-6.426 -1.19,-12.051 -3.61,-16.875 -2.41,-4.824 -5.1,-9.125 -8.03,-12.871 -2.96,-3.742 -6.03,-6.816 -9.26,-9.238 -3.2,-2.403 -5.62,-3.891 -7.22,-4.414 -2.15,2.125 -6.84,5.476 -14.07,10.039 -7.24,4.547 -17.02,9.109 -29.33,13.672 -12.33,4.543 -27.07,8.566 -44.22,12.05 -17.15,3.485 -36.97,5.235 -59.47,5.235 -62.16,0 -93.23,-16.356 -93.23,-49.043 0,-13.934 5.89,-24.512 17.68,-31.739 11.77,-7.246 28.65,-12.199 50.63,-14.867 l 81.99,-10.445 c 44.46,-5.906 79.03,-18.086 103.69,-36.582 24.62,-18.477 36.97,-45.688 36.97,-81.582 0,-40.176 -15.96,-72.324 -47.83,-96.445 -31.89,-24.122 -77.84,-36.172 -137.85,-36.172 -28.93,0 -55.19,2.144 -78.75,6.425 -23.6,4.301 -44.09,9.258 -61.5,14.883 -17.42,5.625 -31.48,11.102 -42.19,16.465 -10.73,5.348 -17.68,9.371 -20.9,12.07 l 34.57,61.875"></path>
      <path id="path16" class="letter" style="fill:#f68b28;fill-opacity:1;fill-rule:nonzero;stroke:none" d="m 2195.48,370.238 c 0,19.278 -3.08,36.825 -9.24,52.637 -6.17,15.797 -14.61,29.336 -25.32,40.586 -10.72,11.25 -23.71,20.098 -38.98,26.523 -15.27,6.426 -32.02,9.649 -50.23,9.649 -18.76,0 -35.65,-3.352 -50.65,-10.039 -14.99,-6.707 -27.99,-15.817 -38.96,-27.344 -10.99,-11.527 -19.45,-25.184 -25.33,-40.977 -5.91,-15.812 -8.83,-32.835 -8.83,-51.035 0,-18.773 2.92,-36.172 8.83,-52.246 5.88,-16.074 14.34,-30.023 25.33,-41.797 10.97,-11.789 23.97,-21.047 38.96,-27.734 15,-6.703 31.89,-10.039 50.65,-10.039 18.21,0 34.96,3.336 50.23,10.039 15.27,6.687 28.26,15.945 38.98,27.734 10.71,11.774 19.15,25.723 25.32,41.797 6.16,16.074 9.24,33.473 9.24,52.246 z m 0,-151.914 c -6.7,-8.578 -14.67,-16.484 -23.91,-23.719 -9.25,-7.23 -19.76,-13.792 -31.54,-19.679 -11.79,-5.895 -24.52,-10.321 -38.19,-13.27 -13.67,-2.949 -28.27,-4.426 -43.8,-4.426 -14.74,0 -28.9,1.309 -42.5,3.922 -13.59,2.618 -26.62,6.536 -39.07,11.762 -12.46,5.223 -24.12,11.484 -34.97,18.781 -10.85,7.301 -20.9,15.641 -30.14,25.028 -9.24,9.367 -17.48,19.644 -24.71,30.832 -7.24,11.183 -13.47,23.277 -18.69,36.277 -5.23,12.992 -9.14,26.621 -11.75,40.887 -2.61,14.265 -3.92,29.164 -3.92,44.699 0,15.273 1.37,30.012 4.11,44.215 2.75,14.199 6.86,27.867 12.36,41 5.48,13.121 12.02,25.308 19.59,36.558 7.57,11.25 16.18,21.563 25.82,30.942 9.65,9.379 20.2,17.75 31.65,25.121 11.46,7.367 23.82,13.73 37.08,19.098 13.26,5.351 27.15,9.371 41.69,12.05 14.53,2.68 29.7,4.024 45.51,4.024 16.34,0 31.94,-1.18 46.81,-3.528 14.87,-2.343 29.01,-5.859 42.41,-10.539 13.39,-4.691 25.78,-10.589 37.17,-17.691 11.38,-7.105 21.77,-15.41 31.15,-24.922 9.37,-9.508 17.67,-20.293 24.91,-32.348 7.23,-12.054 13.4,-25.382 18.49,-39.976 5.09,-14.613 8.9,-30.457 11.45,-47.535 2.55,-17.082 3.82,-35.399 3.82,-54.946 V 178.938 6.9375 c 0,0 -46.37,-9.17188 -72.17,11.5586 -19.53,15.6992 -18.66,51.9805 -18.66,51.9805 V 218.324"></path>
      <path id="path18" class="letter" style="fill:#f68b28;fill-opacity:1;fill-rule:nonzero;stroke:none" d="m 2363.07,528.559 c 0,14.996 4.27,25.851 12.85,32.558 8.57,6.688 20.62,10.055 36.18,10.055 9.64,0 18.47,-1.207 26.52,-3.629 8.03,-2.402 13.39,-4.152 16.07,-5.215 V 350.941 c 0,-36.449 8.57,-64.183 25.73,-83.183 17.13,-19.035 43.39,-28.535 78.76,-28.535 35.36,0 61.6,9.5 78.77,28.535 17.14,19 25.71,46.734 25.71,83.183 v 177.618 c 0,14.996 4.28,25.851 12.87,32.558 8.57,6.688 20.36,10.055 35.37,10.055 10.17,0 19.28,-1.207 27.32,-3.629 8.03,-2.402 13.4,-4.152 16.08,-5.215 V 330.844 c 0,-27.324 -4.7,-51.836 -14.07,-73.535 -9.38,-21.7 -22.79,-40.063 -40.19,-55.059 -17.42,-15.012 -38.18,-26.41 -62.29,-34.16 -24.12,-7.77 -50.64,-11.66 -79.57,-11.66 -28.94,0 -55.46,3.89 -79.57,11.66 -24.12,7.75 -44.75,19.148 -61.89,34.16 -17.15,14.996 -30.55,33.359 -40.19,55.059 -9.65,21.699 -14.46,46.211 -14.46,73.535 v 197.715"></path>
      <path id="path20" class="letter" style="fill:#f68b28;fill-opacity:1;fill-rule:nonzero;stroke:none" d="m 2926.49,387.914 c 12.33,-0.539 24.12,-0.801 35.37,-0.801 11.25,0 22.5,0 33.75,0 29.47,0 53.32,1.864 71.54,5.625 18.22,3.742 32.41,8.567 42.6,14.473 10.17,5.887 16.87,12.574 20.1,20.078 3.2,7.508 4.82,15.274 4.82,23.32 0,20.36 -8.18,35.629 -24.51,45.801 -16.35,10.172 -36.58,15.274 -60.69,15.274 -19.83,0 -37.25,-3.485 -52.24,-10.45 -15.01,-6.964 -27.6,-16.203 -37.77,-27.714 -10.19,-11.532 -18.09,-24.793 -23.72,-39.786 -5.62,-15.011 -8.71,-30.285 -9.25,-45.82 z m 282.12,-190.488 c -4.3,-2.684 -10.98,-6.426 -20.09,-11.25 -9.13,-4.824 -20.49,-9.387 -34.16,-13.672 -13.67,-4.281 -29.47,-8.027 -47.42,-11.25 -17.96,-3.223 -37.65,-4.824 -59.08,-4.824 -30.01,0 -58.01,4.562 -83.99,13.672 -26,9.109 -48.76,22.632 -68.32,40.586 -19.56,17.937 -34.96,39.914 -46.21,65.898 -11.25,25.984 -16.88,55.859 -16.88,89.629 0,32.148 5.48,61.484 16.47,88.008 10.97,26.523 26.25,49.285 45.82,68.32 19.56,19.016 42.6,33.75 69.12,44.199 26.52,10.449 55.58,15.684 87.21,15.684 27.84,0 52.5,-3.633 73.94,-10.86 21.42,-7.226 39.51,-16.875 54.26,-28.925 14.73,-12.071 25.84,-26.133 33.36,-42.207 7.49,-16.075 11.25,-33.227 11.25,-51.446 0,-18.754 -3.5,-35.761 -10.45,-51.035 -6.98,-15.273 -19.3,-28.402 -36.97,-39.375 -17.7,-10.988 -41.54,-19.574 -71.55,-25.723 -30,-6.164 -68.05,-9.238 -114.12,-9.238 -10.72,0 -20.78,0.113 -30.15,0.391 -9.37,0.262 -19.43,0.672 -30.14,1.211 4.29,-27.324 17.55,-49.434 39.79,-66.309 22.24,-16.875 53.98,-25.312 95.25,-25.312 13.91,0 26.78,1.062 38.57,3.203 11.78,2.144 22.37,4.824 31.76,8.047 9.35,3.203 17.4,6.425 24.1,9.648 6.69,3.203 11.66,5.625 14.87,7.227 l 33.76,-64.297"></path>
      <path id="path22" class="letter" style="fill:#f68b28;fill-opacity:1;fill-rule:nonzero;stroke:none" d="m 3296.23,717.445 c 0,14.473 4.27,25.184 12.85,32.149 8.57,6.965 20.62,10.449 36.17,10.449 9.65,0 18.48,-1.195 26.53,-3.613 8.03,-2.407 13.39,-4.157 16.07,-5.219 V 167.68 h -91.62 v 549.765"></path>
      <path id="path24" class="letter" style="fill:#f68b28;fill-opacity:1;fill-rule:nonzero;stroke:none" d="m 3832.84,196.625 c -6.42,-4.301 -14.34,-8.715 -23.71,-13.262 -9.39,-4.562 -20.1,-8.847 -32.15,-12.871 -12.05,-4.004 -25.72,-7.355 -40.99,-10.039 -15.28,-2.683 -32.54,-4.023 -51.84,-4.023 -30.02,0 -58.15,4.562 -84.39,13.672 -26.27,9.109 -49.31,22.632 -69.13,40.586 -19.83,17.937 -35.5,40.046 -47.01,66.308 -11.53,26.246 -17.28,56.531 -17.28,90.82 0,34.289 5.62,64.836 16.87,91.622 11.25,26.8 26.79,49.3 46.62,67.519 19.82,18.215 43.27,32.02 70.33,41.402 27.05,9.356 56.13,14.067 87.21,14.067 26.25,0 48.62,-2.16 67.11,-6.446 18.48,-4.285 33.47,-9.628 45,-16.074 11.53,-6.426 19.82,-13.652 24.92,-21.699 5.09,-8.027 7.64,-16.074 7.64,-24.102 0,-10.726 -3.61,-20.636 -10.86,-29.746 -7.23,-9.109 -14.06,-16.074 -20.49,-20.898 -9.65,9.109 -23.58,17.809 -41.79,26.133 -18.22,8.289 -40.74,12.441 -67.52,12.441 -18.22,0 -35.24,-2.68 -51.04,-8.027 -15.81,-5.363 -29.46,-13.539 -40.99,-24.512 -11.53,-10.988 -20.62,-24.66 -27.33,-40.996 -6.7,-16.352 -10.04,-35.762 -10.04,-58.262 0,-23.597 3.49,-43.695 10.45,-60.293 6.95,-16.613 16.6,-30.265 28.93,-40.996 12.33,-10.711 26.52,-18.625 42.6,-23.711 16.07,-5.086 33.49,-7.636 52.24,-7.636 26.79,0 48.36,3.632 64.71,10.859 16.33,7.227 27.45,12.723 33.36,16.484 l 38.57,-68.32"></path>
      <path id="path26" class="letter" style="fill:#f68b28;fill-opacity:1;fill-rule:nonzero;stroke:none" d="m 3888.58,717.445 c 0,14.473 4.28,25.184 12.85,32.149 8.57,6.965 20.62,10.449 36.17,10.449 9.65,0 18.49,-1.195 26.52,-3.613 8.05,-2.407 13.4,-4.157 16.08,-5.219 V 530.18 c 10.71,12.851 26.78,24.918 48.22,36.172 21.42,11.25 49.3,16.875 83.59,16.875 24.65,0 47.29,-3.5 67.91,-10.45 20.62,-6.968 38.45,-17.285 53.46,-30.941 14.99,-13.668 26.52,-30.691 34.57,-51.051 8.03,-20.359 12.05,-44.199 12.05,-71.523 V 167.68 h -91.62 v 224.258 c 0,35.351 -7.38,62.136 -22.11,80.371 -14.75,18.199 -40.06,27.324 -75.96,27.324 -36.45,0 -63.9,-10.582 -82.38,-31.742 -18.49,-21.176 -27.73,-49.168 -27.73,-84 V 167.68 h -91.62 v 549.765"></path>
      <path id="path28" style="fill:#f68b28;fill-opacity:1;fill-rule:nonzero;stroke:none" d="m 0,710.809 c 0,-42.993 0,-87.286 0,-130.278 123.074,77.914 242.484,67.332 362.184,35.278 l 98.593,99.918 C 307.695,765.391 164.098,810.445 0,710.809"></path>
      <path id="path30" style="fill:#f68b28;fill-opacity:1;fill-rule:nonzero;stroke:none" d="M 599.703,673.848 499.242,573.266 C 649.902,524.563 800,482.469 950,580.531 c 0,42.992 0,87.285 0,130.278 -130,-76.532 -232.719,-67.68 -350.297,-36.961"></path>
      <path id="path32" style="fill:#f68b28;fill-opacity:1;fill-rule:nonzero;stroke:none" d="m 0,450.254 c 0,-42.992 0,-87.289 0,-130.277 328.195,205.836 640,-205.84 950,0 0,42.988 0,87.285 0,130.277 -310,-205.84 -621.805,205.84 -950,0"></path>
      <path id="path34" style="fill:#f68b28;fill-opacity:1;fill-rule:nonzero;stroke:none" d="M 599.703,152.734 499.242,52.1563 C 649.902,3.44922 800,-38.6445 950,59.418 c 0,42.992 0,87.285 0,130.277 C 820,113.164 717.281,122.016 599.703,152.734"></path>
      <path id="path36" style="fill:#f68b28;fill-opacity:1;fill-rule:nonzero;stroke:none" d="M 0,189.695 C 0,146.703 0,102.41 0,59.418 c 123.074,77.914 242.484,67.336 362.184,35.2773 l 98.593,99.9177 C 307.695,244.281 164.098,289.336 0,189.695"></path>
    </g>
  </g>
</svg>