<?xml version="1.0" encoding="UTF-8"?>
<svg width="100%" height="100%" viewBox="0 0 52 52" version="1.1" xmlns="http://www.w3.org/2000/svg" xmlns:xlink="http://www.w3.org/1999/xlink">
    <title>command line</title>
    <desc>Created with Sketch.</desc>
    <defs>
        <filter x="-8.3%" y="-8.3%" width="116.7%" height="116.7%" filterUnits="objectBoundingBox" id="filter-1">
            <feOffset dx="0" dy="0" in="SourceAlpha" result="shadowOffsetOuter1"></feOffset>
            <feGaussianBlur stdDeviation="1" in="shadowOffsetOuter1" result="shadowBlurOuter1"></feGaussianBlur>
            <feColorMatrix values="0 0 0 0 0   0 0 0 0 0   0 0 0 0 0  0 0 0 0.5 0" type="matrix" in="shadowBlurOuter1" result="shadowMatrixOuter1"></feColorMatrix>
            <feMerge>
                <feMergeNode in="shadowMatrixOuter1"></feMergeNode>
                <feMergeNode in="SourceGraphic"></feMergeNode>
            </feMerge>
        </filter>
    </defs>
    <g id="Page-1" stroke="none" stroke-width="1" fill="none" fill-rule="evenodd">
        <g id="command-line" filter="url(#filter-1)" transform="translate(2.000000, 2.000000)">
            <circle id="path4514" fill="#326CE5" cx="23.9999996" cy="23.9999996" r="23.9999996"></circle>
            <g id="Group" transform="translate(10.000000, 13.000000)">
                <rect id="Rectangle" stroke="#8AABEF" stroke-width="2" stroke-linecap="round" stroke-linejoin="round" x="0" y="6" width="30" height="18"></rect>
                <rect id="Rectangle" stroke="#8AABEF" stroke-width="2" stroke-linecap="round" stroke-linejoin="round" x="0" y="0" width="30" height="6"></rect>
                <circle id="Oval" fill="#8AABEF" cx="4" cy="3" r="1"></circle>
                <circle id="Oval" fill="#8AABEF" cx="8" cy="3" r="1"></circle>
                <circle id="Oval" fill="#8AABEF" cx="12" cy="3" r="1"></circle>
            </g>
            <g id="Group" transform="translate(9.000000, 12.000000)">
                <rect id="Rectangle" stroke="#FFFFFF" stroke-width="2" stroke-linecap="round" stroke-linejoin="round" x="0" y="6" width="30" height="18"></rect>
                <rect id="Rectangle" stroke="#FFFFFF" stroke-width="2" stroke-linecap="round" stroke-linejoin="round" x="0" y="0" width="30" height="6"></rect>
                <circle id="Oval" fill="#FFFFFF" cx="4" cy="3" r="1"></circle>
                <circle id="Oval" fill="#FFFFFF" cx="8" cy="3" r="1"></circle>
                <circle id="Oval" fill="#FFFFFF" cx="12" cy="3" r="1"></circle>
            </g>
            <g id="Group" transform="translate(15.000000, 22.000000)" stroke="#8AABEF" stroke-linecap="round" stroke-linejoin="round" stroke-width="2">
                <polyline id="Path" points="5.5 1 0.5 6 5.5 11"></polyline>
                <polyline id="Path" points="14.5 1 19.5 6 14.5 11"></polyline>
                <path d="M8.5,12 L11.5,0" id="Path"></path>
            </g>
            <g id="Group" transform="translate(14.000000, 21.000000)" stroke="#FFFFFF" stroke-linecap="round" stroke-linejoin="round" stroke-width="2">
                <polyline id="Path" points="5.5 1 0.5 6 5.5 11"></polyline>
                <polyline id="Path" points="14.5 1 19.5 6 14.5 11"></polyline>
                <path d="M8.5,12 L11.5,0" id="Path"></path>
            </g>
        </g>
    </g>
</svg>