<?xml version="1.0" encoding="UTF-8"?>
<svg width="100%" height="100%" viewBox="0 0 52 52" version="1.1" xmlns="http://www.w3.org/2000/svg" xmlns:xlink="http://www.w3.org/1999/xlink">
    <defs>
        <filter x="-8.3%" y="-8.3%" width="116.7%" height="116.7%" filterUnits="objectBoundingBox" id="filter-1">
            <feOffset dx="0" dy="0" in="SourceAlpha" result="shadowOffsetOuter1"></feOffset>
            <feGaussianBlur stdDeviation="1" in="shadowOffsetOuter1" result="shadowBlurOuter1"></feGaussianBlur>
            <feColorMatrix values="0 0 0 0 0   0 0 0 0 0   0 0 0 0 0  0 0 0 0.5 0" type="matrix" in="shadowBlurOuter1" result="shadowMatrixOuter1"></feColorMatrix>
            <feMerge>
                <feMergeNode in="shadowMatrixOuter1"></feMergeNode>
                <feMergeNode in="SourceGraphic"></feMergeNode>
            </feMerge>
        </filter>
    </defs>
    <g id="Page-1" stroke="none" stroke-width="1" fill="none" fill-rule="evenodd">
        <g id="iconfinder_thefreeforty_shop_1243706" filter="url(#filter-1)" transform="translate(2.000000, 2.000000)">
            <circle id="path4514" fill="#326CE5" cx="23.9999996" cy="23.9999996" r="23.9999996"></circle>
            <path d="M24.3,26 L17.6,26 C16.1,26 14.9,27.2 14.9,28.7 L14.9,30.6 C14.9,32.1 16.1,33.3 17.6,33.3 L24.3,33.3 C25.8,33.3 27,32.1 27,30.6 L27,28.7 C27,27.2 25.8,26 24.3,26 Z M25.5,30.6 C25.5,31.3 25,31.8 24.3,31.8 L17.6,31.8 C16.9,31.8 16.4,31.3 16.4,30.6 L16.4,28.7 C16.4,28 16.9,27.5 17.6,27.5 L24.3,27.5 C25,27.5 25.5,28 25.5,28.7 L25.5,30.6 Z M39.3,21 L37.9,13.6 C37.8,13.2 37.5,13 37.2,13 L12.2,13 C11.8,13 11.5,13.3 11.5,13.6 L10.3,19.7 C10.1,20.2 10,20.7 10,21.2 C10,22.7 10.8,24.1 12.1,24.8 L12.1,35.1 C12.1,36.3 13.1,37.3 14.3,37.3 L28.3,37.3 C28.7,37.3 29.1,37 29.1,36.5 C29.1,36.5 29.1,36.5 29.1,36.4 C29.1,36.4 29.1,36.4 29.1,36.3 L29.1,27.3 L33.1,27.3 L33.1,36.3 C33.1,36.3 33.1,36.3 33.1,36.4 C33.1,36.4 33.1,36.4 33.1,36.5 C33.1,36.9 33.4,37.3 33.9,37.3 L35.3,37.3 C36.5,37.3 37.5,36.3 37.5,35.1 L37.5,24.6 C38.6,23.9 39.3,22.7 39.4,21.4 C39.4,21.3 39.4,21.1 39.3,21 Z M35.9,35 C35.9,35.4 35.6,35.7 35.2,35.7 L34.5,35.7 L34.5,26.6 C34.5,26.2 34.2,25.8 33.7,25.8 L28.2,25.8 C27.8,25.8 27.4,26.1 27.4,26.6 L27.4,35.7 L14.3,35.7 C13.9,35.7 13.6,35.4 13.6,35 L13.6,25.3 C13.8,25.3 14,25.4 14.2,25.4 C15.6,25.4 16.9,24.7 17.7,23.6 C18.5,24.7 19.7,25.4 21.2,25.4 C22.7,25.4 23.9,24.7 24.7,23.6 C25.5,24.7 26.7,25.4 28.2,25.4 C29.7,25.4 30.9,24.7 31.7,23.6 C32.5,24.7 33.7,25.4 35.2,25.4 C35.5,25.4 35.8,25.4 36,25.3 L36,35 L35.9,35 Z M37.8,21.1 C37.8,22.6 36.6,23.8 35.1,23.8 C33.6,23.8 32.4,22.6 32.4,21.1 C32.4,20.7 32.1,20.3 31.6,20.3 C31.1,20.3 30.8,20.6 30.8,21.1 C30.8,22.6 29.6,23.8 28.1,23.8 C26.6,23.8 25.4,22.6 25.4,21.1 C25.4,20.7 25.1,20.3 24.6,20.3 C24.1,20.3 23.8,20.6 23.8,21.1 C23.8,22.6 22.6,23.8 21.1,23.8 C19.6,23.8 18.4,22.6 18.4,21.1 C18.4,20.7 18.1,20.3 17.6,20.3 C17.1,20.3 17,20.7 17,21.1 C17,22.6 15.8,23.8 14.3,23.8 C12.8,23.8 11.6,22.6 11.6,21.1 C11.6,20.8 11.7,20.4 11.8,20.1 C11.8,20.1 11.8,20 11.8,20 L12.9,14.5 L36.7,14.5 L37.9,21 C37.8,21.1 37.8,21.1 37.8,21.1 Z" id="Shape" fill="#8AABEF" fill-rule="nonzero"></path>
            <path d="M23.3,25 L16.6,25 C15.1,25 13.9,26.2 13.9,27.7 L13.9,29.6 C13.9,31.1 15.1,32.3 16.6,32.3 L23.3,32.3 C24.8,32.3 26,31.1 26,29.6 L26,27.7 C26,26.2 24.8,25 23.3,25 Z M24.5,29.6 C24.5,30.3 24,30.8 23.3,30.8 L16.6,30.8 C15.9,30.8 15.4,30.3 15.4,29.6 L15.4,27.7 C15.4,27 15.9,26.5 16.6,26.5 L23.3,26.5 C24,26.5 24.5,27 24.5,27.7 L24.5,29.6 Z M38.3,20 L36.9,12.6 C36.8,12.2 36.5,12 36.2,12 L11.2,12 C10.8,12 10.5,12.3 10.5,12.6 L9.3,18.7 C9.1,19.2 9,19.7 9,20.2 C9,21.7 9.8,23.1 11.1,23.8 L11.1,34.1 C11.1,35.3 12.1,36.3 13.3,36.3 L27.3,36.3 C27.7,36.3 28.1,36 28.1,35.5 C28.1,35.5 28.1,35.5 28.1,35.4 C28.1,35.4 28.1,35.4 28.1,35.3 L28.1,26.3 L32.1,26.3 L32.1,35.3 C32.1,35.3 32.1,35.3 32.1,35.4 C32.1,35.4 32.1,35.4 32.1,35.5 C32.1,35.9 32.4,36.3 32.9,36.3 L34.3,36.3 C35.5,36.3 36.5,35.3 36.5,34.1 L36.5,23.6 C37.6,22.9 38.3,21.7 38.4,20.4 C38.4,20.3 38.4,20.1 38.3,20 Z M34.9,34 C34.9,34.4 34.6,34.7 34.2,34.7 L33.5,34.7 L33.5,25.6 C33.5,25.2 33.2,24.8 32.7,24.8 L27.2,24.8 C26.8,24.8 26.4,25.1 26.4,25.6 L26.4,34.7 L13.3,34.7 C12.9,34.7 12.6,34.4 12.6,34 L12.6,24.3 C12.8,24.3 13,24.4 13.2,24.4 C14.6,24.4 15.9,23.7 16.7,22.6 C17.5,23.7 18.7,24.4 20.2,24.4 C21.7,24.4 22.9,23.7 23.7,22.6 C24.5,23.7 25.7,24.4 27.2,24.4 C28.7,24.4 29.9,23.7 30.7,22.6 C31.5,23.7 32.7,24.4 34.2,24.4 C34.5,24.4 34.8,24.4 35,24.3 L35,34 L34.9,34 Z M36.8,20.1 C36.8,21.6 35.6,22.8 34.1,22.8 C32.6,22.8 31.4,21.6 31.4,20.1 C31.4,19.7 31.1,19.3 30.6,19.3 C30.1,19.3 29.8,19.6 29.8,20.1 C29.8,21.6 28.6,22.8 27.1,22.8 C25.6,22.8 24.4,21.6 24.4,20.1 C24.4,19.7 24.1,19.3 23.6,19.3 C23.1,19.3 22.8,19.6 22.8,20.1 C22.8,21.6 21.6,22.8 20.1,22.8 C18.6,22.8 17.4,21.6 17.4,20.1 C17.4,19.7 17.1,19.3 16.6,19.3 C16.1,19.3 16,19.7 16,20.1 C16,21.6 14.8,22.8 13.3,22.8 C11.8,22.8 10.6,21.6 10.6,20.1 C10.6,19.8 10.7,19.4 10.8,19.1 C10.8,19.1 10.8,19 10.8,19 L11.9,13.5 L35.7,13.5 L36.9,20 C36.8,20.1 36.8,20.1 36.8,20.1 Z" id="Shape" fill="#FFFFFF" fill-rule="nonzero"></path>
        </g>
    </g>
</svg>