<?xml version="1.0" encoding="UTF-8"?>
<svg width="235px" height="235px" viewBox="0 0 235 235" version="1.1" xmlns="http://www.w3.org/2000/svg" xmlns:xlink="http://www.w3.org/1999/xlink">
    <!-- Generator: Sketch 52.5 (67469) - http://www.bohemiancoding.com/sketch -->
    <title>understand product margins_ns</title>
    <desc>Created with Sketch.</desc>
    <defs>
        <circle id="path-1" cx="115.5" cy="115.5" r="115.5"></circle>
        <filter x="-1.3%" y="-1.3%" width="102.6%" height="102.6%" filterUnits="objectBoundingBox" id="filter-2">
            <feOffset dx="0" dy="0" in="SourceAlpha" result="shadowOffsetOuter1"></feOffset>
            <feGaussianBlur stdDeviation="1" in="shadowOffsetOuter1" result="shadowBlurOuter1"></feGaussianBlur>
            <feColorMatrix values="0 0 0 0 0   0 0 0 0 0   0 0 0 0 0  0 0 0 0.5 0" type="matrix" in="shadowBlurOuter1"></feColorMatrix>
        </filter>
    </defs>
    <g id="Page-1" stroke="none" stroke-width="1" fill="none" fill-rule="evenodd">
        <g id="understand-product-margins_ns" transform="translate(2.000000, 2.000000)">
            <g id="Oval" fill-rule="nonzero">
                <use fill="black" fill-opacity="1" filter="url(#filter-2)" xlink:href="#path-1"></use>
                <use fill="#F5F8FE" xlink:href="#path-1"></use>
            </g>
            <g id="manage-budget" transform="translate(33.000000, 32.000000)">
                <g id="Group-11-Copy" transform="translate(46.237831, 68.396056)">
                    <g id="Group-12">
                        <rect id="Rectangle-4-Copy" fill="#194AA3" x="34.4790548" y="25.3673233" width="22.2445514" height="58.4551362"></rect>
                        <rect id="Rectangle-4-Copy-2" fill="#194AA3" x="58.9480614" y="17.09537" width="22.2445514" height="66.1756257"></rect>
                        <rect id="Rectangle-4-Copy-3" fill="#194AA3" x="83.4170682" y="0" width="22.2445514" height="83.2709956"></rect>
                        <path d="M0,82.8573979 L106.49579,82.8573979" id="Line-2" stroke="#326CE5" stroke-width="4" stroke-linecap="square"></path>
                    </g>
                </g>
                <g id="Group-11" transform="translate(0.237831, 0.396056)" fill="#326CE5">
                    <path d="M33.4797813,76.5973487 C37.5356133,72.2504194 44.3549644,72.0073934 48.7112284,76.0545342 C53.0674924,80.101675 53.3110406,86.9064131 49.2552086,91.2533424 L19.2505783,123.41148 C15.1947463,127.758409 8.37539519,128.001435 4.01913124,123.954294 C-0.337132725,119.907154 -0.580680979,113.102415 3.47515099,108.755486 L33.4797813,76.5973487 Z" id="Line-2-Copy"></path>
                    <path d="M51.8780788,65.814608 C53.6162925,63.9516387 56.5388716,63.8474847 58.4058418,65.5819732 C60.2728122,67.3164624 60.37719,70.2327786 58.6389763,72.0957486 L28.6343459,104.253885 C26.8961322,106.116855 23.9735532,106.221009 22.1065829,104.48652 C20.2396126,102.752032 20.1352348,99.8357154 21.8734485,97.9727454 L51.8780788,65.814608 Z" id="Line-2-Copy-2"></path>
                    <path d="M91.4973195,51.8029895 C91.4973195,50.1626714 91.0412605,48.8574378 90.1291294,47.8872495 C89.2169988,46.9170614 87.6684035,46.0219012 85.4832981,45.2017421 C83.2981927,44.3815829 81.4138182,43.5664371 79.8301185,42.7562799 C78.2464181,41.9461228 76.8882654,41.0159563 75.7556189,39.9657526 C74.6229725,38.9155489 73.7409247,37.6803278 73.1094496,36.2600523 C72.4779739,34.8397768 72.1622408,33.1494743 72.1622408,31.189094 C72.1622408,27.8084382 73.2447539,25.0379424 75.4098125,22.8775233 C77.5748712,20.7171042 80.4515492,19.4568787 84.0399331,19.0968088 L84.0399331,12.6755954 L88.8511502,12.6755954 L88.8511502,19.1868259 C92.3994406,19.6869228 95.1758856,21.1621869 97.1805698,23.6126623 C99.1852534,26.0631375 100.18758,29.2387059 100.18758,33.1394625 L91.4973195,33.1394625 C91.4973195,30.7389969 91.0011677,28.9436756 90.008849,27.7534447 C89.0165309,26.5632139 87.6884476,25.9681074 86.0245604,25.9681074 C84.3807192,25.9681074 83.1077641,26.4331906 82.2056569,27.363371 C81.3035491,28.2935515 80.8525015,29.5787815 80.8525015,31.2190997 C80.8525015,32.7393946 81.2935257,33.959613 82.1755868,34.8797914 C83.0576473,35.7999699 84.6964516,36.7401382 87.0920489,37.7003245 C89.4876462,38.6605108 91.4572184,39.5656727 93.0008246,40.4158376 C94.5444315,41.2660026 95.8474561,42.2261744 96.9099384,43.296382 C97.9724213,44.3665896 98.7843055,45.586808 99.345617,46.9570738 C99.9069285,48.3273396 100.18758,49.9226251 100.18758,51.7429782 C100.18758,55.1436379 99.1251138,57.9041319 97.0001486,60.0245432 C94.8751841,62.1449545 91.9483899,63.3951783 88.2196776,63.7752522 L88.2196776,69.7463807 L83.4385313,69.7463807 L83.4385313,63.8052578 C79.3289293,63.3651723 76.1465415,61.9099119 73.891272,59.4394326 C71.6360031,56.9689534 70.5083852,53.6833654 70.5083852,49.5825699 L79.1986459,49.5825699 C79.1986459,51.9630317 79.7649605,53.7883584 80.897607,55.0586048 C82.0302535,56.3288511 83.6590345,56.9639648 85.783999,56.9639648 C87.5481212,56.9639648 88.9413554,56.4988816 89.9637442,55.5687012 C90.986133,54.6385208 91.4973195,53.3832961 91.4973195,51.8029895 Z" id="$"></path>
                    <path d="M83.6934713,84.3758365 C60.4287212,84.3758365 41.5689149,65.5564443 41.5689149,42.3415474 C41.5689149,19.1266505 60.4287212,0.307258065 83.6934713,0.307258065 C106.958221,0.307258065 125.818027,19.1266505 125.818027,42.3415474 C125.818027,65.5564443 106.958221,84.3758365 83.6934713,84.3758365 Z M83.6934713,75.1580945 C101.856471,75.1580945 116.580491,60.4656261 116.580491,42.3415474 C116.580491,24.2174687 101.856471,9.525 83.6934713,9.525 C65.530472,9.525 50.8064516,24.2174687 50.8064516,42.3415474 C50.8064516,60.4656261 65.530472,75.1580945 83.6934713,75.1580945 Z" id="Oval-3" fill-rule="nonzero"></path>
                </g>
            </g>
        </g>
    </g>
</svg>